<svg width="707" height="490" viewBox="0 0 707 490" fill="none" xmlns="http://www.w3.org/2000/svg">
	<path d="M153.552 477.666H164.54L169.767 435.332L153.551 435.333L153.552 477.666Z" fill="#A0616A" />
	<path d="M150.75 474.083L172.388 474.082H172.389C176.046 474.083 179.553 475.534 182.139 478.117C184.725 480.7 186.178 484.204 186.179 487.857V488.304L150.751 488.306L150.75 474.083Z" fill="#2F2E41" />
	<path d="M226.134 477.666H237.121L242.349 435.332L226.132 435.333L226.134 477.666Z" fill="#A0616A" />
	<path d="M223.331 474.083L244.969 474.082H244.97C248.627 474.083 252.135 475.534 254.721 478.117C257.307 480.7 258.76 484.204 258.76 487.857V488.304L223.332 488.306L223.331 474.083Z" fill="#2F2E41" />
	<path d="M494.915 488.371H0.632812V490H494.915V488.371Z" fill="#E6E6E6" />
	<path d="M144.353 468.486H172.815L191.007 309.368L224.455 468.486H243.659V278.743L152.351 251.446L144.353 468.486Z" fill="#2F2E41" />
	<path d="M192.883 111.444C206.591 111.444 217.704 100.343 217.704 86.6494C217.704 72.9559 206.591 61.855 192.883 61.855C179.175 61.855 168.062 72.9559 168.062 86.6494C168.062 100.343 179.175 111.444 192.883 111.444Z" fill="#A0616A" />
	<path d="M154.35 255.44C180.983 276.247 210.381 286.734 243.659 282.737C229.604 233.442 225.436 184.52 238.994 136.268L211.001 123.618L179.536 121.621L156.667 128.34C153.45 129.286 150.633 131.263 148.651 133.965C146.669 136.667 145.631 139.945 145.697 143.295C146.505 184.445 143.766 222.956 154.35 255.44Z" fill="#E6E6E6" />
	<path d="M169.127 74.182C171.515 69.6815 174.549 60.712 179.369 59.0485C182.046 58.162 184.812 57.5733 187.618 57.2932L195.81 60.4407L191.351 56.9767C192.219 56.925 193.087 56.8828 193.954 56.85L199.482 58.9736L196.654 56.7765C201.807 56.7237 207.126 57.2589 211.119 60.3926C214.523 63.064 217.895 73.1839 218.441 77.4735C219.024 81.5771 218.82 85.7541 217.839 89.7815L216.44 91.1111C215.95 89.9896 215.582 88.8189 215.341 87.6191C214.84 85.3774 213.876 83.2646 212.511 81.4156C211.147 79.5665 209.412 78.0216 207.417 76.8795L207.34 76.8365C204.993 75.5166 202.144 75.5775 199.451 75.6743L186.665 76.1339C183.588 76.2445 180.276 76.4389 177.877 78.3666C176.258 79.6684 175.287 81.5901 174.364 83.4508C173.172 85.8536 170.843 94.9162 170.843 94.9162C170.843 94.9162 169.526 93.2055 168.894 94.4788C167.882 91.1568 167.266 87.7268 167.06 84.2602C166.859 80.7783 167.571 77.3042 169.127 74.182V74.182Z" fill="#2F2E41" />
	<path d="M687.888 234.293H401.343C396.444 234.287 391.746 232.341 388.282 228.88C384.818 225.419 382.869 220.727 382.863 215.833V18.4595C382.869 13.5654 384.818 8.87336 388.282 5.41273C391.746 1.95211 396.444 0.00551323 401.343 0H687.888C692.787 0.00551323 697.484 1.95211 700.949 5.41273C704.413 8.87336 706.362 13.5654 706.367 18.4595V215.833C706.362 220.727 704.413 225.419 700.949 228.88C697.484 232.341 692.787 234.287 687.888 234.293ZM401.343 1.62928C396.876 1.63434 392.593 3.40913 389.435 6.5643C386.276 9.71948 384.499 13.9974 384.494 18.4595V215.833C384.499 220.296 386.276 224.573 389.435 227.729C392.593 230.884 396.876 232.659 401.343 232.664H687.888C692.355 232.659 696.637 230.884 699.796 227.729C702.954 224.573 704.731 220.296 704.736 215.833V18.4595C704.731 13.9974 702.954 9.71948 699.796 6.5643C696.637 3.40913 692.355 1.63434 687.888 1.62928H401.343Z" fill="#F0F0F0" />
	<path d="M352.689 250.864V53.49C352.694 48.8119 354.557 44.3268 357.869 41.0189C361.18 37.711 365.67 35.8502 370.353 35.845H656.898C661.581 35.8502 666.071 37.711 669.383 41.0189C672.694 44.3268 674.557 48.8119 674.562 53.49V250.864C674.557 255.542 672.694 260.027 669.383 263.335C666.071 266.643 661.581 268.504 656.898 268.509H370.353C365.67 268.504 361.18 266.643 357.869 263.335C354.557 260.027 352.694 255.542 352.689 250.864Z" fill="#E4E4E4" />
	<path d="M363.959 251.21V53.1413C363.961 51.6992 364.535 50.3167 365.556 49.297C366.576 48.2773 367.96 47.7037 369.404 47.702H657.847C659.29 47.7037 660.674 48.2773 661.695 49.297C662.716 50.3167 663.29 51.6992 663.292 53.1413V251.21C663.29 252.652 662.716 254.035 661.695 255.054C660.674 256.074 659.29 256.648 657.847 256.649H369.404C367.961 256.648 366.576 256.074 365.556 255.054C364.535 254.035 363.961 252.652 363.959 251.21Z" fill="#F4F4F4" />
	<path d="M479.935 443.609C484.368 443.609 487.962 440.019 487.962 435.591C487.962 431.162 484.368 427.572 479.935 427.572C475.502 427.572 471.908 431.162 471.908 435.591C471.908 440.019 475.502 443.609 479.935 443.609Z" fill="#E6E6E6" />
	<path d="M513.381 443.609C517.815 443.609 521.409 440.019 521.409 435.591C521.409 431.162 517.815 427.572 513.381 427.572C508.948 427.572 505.354 431.162 505.354 435.591C505.354 440.019 508.948 443.609 513.381 443.609Z" fill="#E6E6E6" />
	<path d="M546.828 443.609C551.261 443.609 554.855 440.019 554.855 435.591C554.855 431.162 551.261 427.572 546.828 427.572C542.395 427.572 538.801 431.162 538.801 435.591C538.801 440.019 542.395 443.609 546.828 443.609Z" fill="#E6E6E6" />
	<path d="M513.626 210.391C502.099 210.391 490.832 206.977 481.248 200.58C471.665 194.184 464.195 185.092 459.784 174.454C455.373 163.817 454.219 152.112 456.468 140.819C458.716 129.527 464.267 119.154 472.417 111.012C480.567 102.871 490.951 97.3265 502.256 95.0802C513.561 92.834 525.278 93.9868 535.927 98.393C546.576 102.799 555.678 110.261 562.081 119.834C568.485 129.407 571.903 140.663 571.903 152.176V152.176C571.886 167.611 565.74 182.408 554.815 193.321C543.889 204.235 529.076 210.374 513.626 210.391Z" fill="#16ABF8" />
	<path d="M536.62 146.434H519.374V129.206C519.372 127.685 518.765 126.227 517.687 125.152C516.609 124.077 515.149 123.473 513.626 123.473C512.103 123.473 510.642 124.077 509.564 125.152C508.486 126.227 507.879 127.685 507.877 129.206V146.434H490.631C489.108 146.436 487.648 147.042 486.572 148.119C485.496 149.196 484.892 150.655 484.892 152.176C484.892 153.698 485.496 155.157 486.572 156.233C487.648 157.31 489.108 157.916 490.631 157.919H507.877V175.146C507.879 176.668 508.486 178.126 509.564 179.201C510.642 180.276 512.103 180.879 513.626 180.879C515.149 180.879 516.609 180.276 517.687 179.201C518.765 178.126 519.372 176.668 519.374 175.146V157.919H536.62C537.376 157.92 538.124 157.774 538.823 157.486C539.521 157.199 540.156 156.777 540.691 156.244C541.226 155.712 541.651 155.079 541.941 154.382C542.232 153.686 542.382 152.939 542.383 152.184C542.384 151.43 542.236 150.682 541.948 149.985C541.659 149.287 541.236 148.653 540.703 148.119C540.169 147.585 539.535 147.162 538.837 146.872C538.14 146.583 537.392 146.434 536.636 146.434H536.62Z" fill="#F4F4F4" />
	<path d="M89.0572 439.758C87.7896 431.595 85.3167 423.664 81.7192 416.226L81.1947 415.142L77.2995 419.457L80.1857 413.03L79.9969 412.658C77.4501 407.621 74.6275 402.729 71.5419 398.003L70.9697 397.128L70.2064 397.973L70.7407 396.783L70.4732 396.382C66.6516 390.656 63.7157 387.035 63.6866 386.998L62.8563 385.978L62.3223 387.195C62.2244 387.418 52.5206 409.754 51.2352 431.826L51.2149 432.17L57.7458 440.056L51.0854 435.879L51.097 437.395C51.1172 439.989 51.294 442.579 51.6262 445.152C51.9195 447.365 52.2648 449.526 52.6619 451.634C53.2915 451.654 53.9039 451.845 54.4329 452.186C53.9728 449.83 53.5761 447.409 53.2426 444.923C52.9853 442.938 52.8232 440.921 52.7587 438.91L65.6414 446.99L52.8838 431.585C54.0453 412.924 61.2548 394.123 63.2788 389.161C64.3651 390.568 66.4143 393.3 68.8656 396.95L64.4093 406.874L70.7627 399.837C73.5171 404.12 76.0544 408.538 78.3648 413.076L71.5025 428.357L80.7807 418.08C84.0214 425.041 86.2646 432.424 87.4442 440.01C89.0681 452.263 88.7511 464.034 86.5514 473.154C84.4445 481.891 80.7313 487.262 76.3634 487.889C75.4645 488.013 74.5498 487.959 73.6719 487.729C72.9679 488.229 72.1207 488.487 71.2574 488.465H71.0191C72.374 489.217 73.8928 489.624 75.4422 489.652C75.825 489.652 76.2074 489.625 76.5863 489.57C81.7215 488.833 85.8226 483.15 88.1333 473.568C90.3824 464.241 90.7118 452.241 89.0572 439.758Z" fill="#E6E6E6" />
	<path d="M74.6848 489.007C67.9675 489.007 58.2825 485.316 48.6762 478.597C47.2623 477.6 45.9121 476.515 44.6337 475.35L43.5578 474.368L47.6258 473.198L42.209 473L41.9805 472.761C31.8271 462.138 25.5088 447.134 25.4459 446.985L24.9521 445.799L26.236 445.858C26.3638 445.863 29.416 446.007 34.0033 446.657L34.2892 446.698V446.695L35.2951 446.848C39.041 447.417 42.7519 448.196 46.4101 449.181L46.8007 449.287L48.0212 452.29L47.8361 449.597L48.9558 449.92C54.2631 451.45 59.3039 453.784 63.9024 456.842C78.5112 467.06 86.5947 479.832 82.3216 485.928C80.8609 488.011 78.1723 489.006 74.6848 489.007ZM46.8405 475.119C47.7329 475.874 48.6615 476.593 49.614 477.263C62.994 486.623 77.3604 490.162 80.9852 484.994C84.6092 479.824 76.3648 467.548 62.9828 458.188C58.8543 455.444 54.3564 453.301 49.6239 451.822L50.3475 462.344L45.5945 450.65C42.4643 449.82 39.2619 449.138 36.056 448.616L36.5812 456.254L33.3099 448.205C30.7754 447.858 28.7322 447.669 27.4894 447.573C29.1838 451.29 34.7825 462.767 42.9325 471.396L57.881 471.943L46.8405 475.119Z" fill="#E6E6E6" />
	<path d="M169.961 271.695C169.956 270.452 169.677 269.226 169.146 268.103C168.614 266.98 167.843 265.986 166.885 265.193C165.928 264.4 164.808 263.826 163.605 263.512C162.402 263.198 161.144 263.151 159.92 263.375L145.025 237.093L138.878 249.677L153.114 273.882C153.627 275.91 154.867 277.68 156.598 278.856C158.33 280.032 160.434 280.533 162.51 280.263C164.587 279.994 166.492 278.973 167.866 277.393C169.239 275.814 169.985 273.787 169.961 271.695V271.695Z" fill="#A0616A" />
	<path d="M236.566 300.912C235.978 299.817 235.638 298.606 235.569 297.366C235.5 296.125 235.704 294.885 236.167 293.731C236.63 292.578 237.34 291.54 238.248 290.691C239.156 289.842 240.239 289.202 241.422 288.816L241.972 258.619L254.929 267.497L252.419 294.811C252.937 296.838 252.692 298.984 251.731 300.843C250.77 302.701 249.16 304.143 247.206 304.895C245.251 305.647 243.089 305.657 241.128 304.923C239.167 304.189 237.544 302.761 236.566 300.912H236.566Z" fill="#A0616A" />
	<path d="M146.352 268.089L157.016 258.103L151.543 204.176L157.875 127.945C144.121 132.263 129.353 143.863 126.92 158.058L118.219 208.836L146.352 268.089Z" fill="#E6E6E6" />
	<path opacity="0.2" d="M152.544 175.215L143.879 209.835L157.016 258.961L148.544 212.498L152.544 175.215Z" fill="black" />
	<path d="M238.327 286.73L255.656 288.728L251.599 160.19C251.417 154.446 249.584 148.877 246.318 144.146C243.052 139.416 238.492 135.725 233.182 133.515L226.997 130.941L228.663 191.193L238.327 286.73Z" fill="#E6E6E6" />
	<path opacity="0.2" d="M231.84 193.164L238.528 267.347L227.203 193.681L231.84 193.164Z" fill="black" />
</svg>
